<?xml version="1.0" encoding="utf-8" standalone="no"?><!DOCTYPE svg PUBLIC "-//W3C//DTD SVG 20010904//EN" "http://www.w3.org/TR/2001/REC-SVG-20010904/DTD/svg10.dtd"><svg xmlns="http://www.w3.org/2000/svg" width="280" height="1235" xmlns:xlink="http://www.w3.org/1999/xlink"><source><![CDATA[Created with Raphaël 2.1.2Start输入一张人脸图像检测到人脸？获取归一化人脸图像获取人脸质量人脸质量大于阈值？获取人脸特征人脸特征比对Endyesnoyesno]]></source><desc style="-webkit-tap-highlight-color: rgba(0, 0, 0, 0);">Created with Raphaël 2.1.2</desc><defs style="-webkit-tap-highlight-color: rgba(0, 0, 0, 0);"><path stroke-linecap="round" d="M5,0 0,2.5 5,5z" id="raphael-marker-block-obj5" style="-webkit-tap-highlight-color: rgba(0, 0, 0, 0);"></path><marker id="raphael-marker-endblock33-obj6" markerHeight="3" markerWidth="3" orient="auto" refX="1.5" refY="1.5" style="-webkit-tap-highlight-color: rgba(0, 0, 0, 0);"><use xmlns:xlink="http://www.w3.org/1999/xlink" xlink:href="#raphael-marker-block-obj5" transform="rotate(180 1.5 1.5) scale(0.6,0.6)" stroke-width="1.6667" fill="black" stroke="none" style="-webkit-tap-highlight-color: rgba(0, 0, 0, 0);"></use></marker></defs><rect x="0" y="0" width="52.5" height="37" r="20" rx="20" ry="20" fill="#ffffff" stroke="#000000" style="-webkit-tap-highlight-color: rgba(0, 0, 0, 0);" stroke-width="2" class="flowchart" id="st" transform="matrix(1,0,0,1,102.25,47.75)"></rect><text x="10" y="18.5" text-anchor="start" font="10px &quot;Arial&quot;" stroke="none" fill="#000000" style="-webkit-tap-highlight-color: rgba(0, 0, 0, 0); text-anchor: start; font-style: normal; font-variant: normal; font-weight: normal; font-stretch: normal; font-size: 15px; line-height: normal; font-family: Arial;" id="stt" class="flowchartt" font-size="15px" transform="matrix(1,0,0,1,102.25,47.75)" stroke-width="1"><tspan style="-webkit-tap-highlight-color: rgba(0, 0, 0, 0);" dy="5.5">Start</tspan></text><path fill="#ffffff" stroke="#000000" d="M10,18.5L0,37L162,37L182,0L20,0L10,18.5" stroke-width="2" id="i1" class="flowchart" style="-webkit-tap-highlight-color: rgba(0, 0, 0, 0);" transform="matrix(1,0,0,1,37.5,182.5)"></path><text x="30" y="18.5" text-anchor="start" font="10px &quot;Arial&quot;" stroke="none" fill="#000000" style="-webkit-tap-highlight-color: rgba(0, 0, 0, 0); text-anchor: start; font-style: normal; font-variant: normal; font-weight: normal; font-stretch: normal; font-size: 15px; line-height: normal; font-family: Arial;" id="i1t" class="flowchartt" font-size="15px" transform="matrix(1,0,0,1,37.5,182.5)" stroke-width="1"><tspan style="-webkit-tap-highlight-color: rgba(0, 0, 0, 0);" dy="5.5">输入一张人脸图像</tspan></text><path fill="#ffffff" stroke="#000000" d="M45.375,22.6875L0,45.375L90.75,90.75L181.5,45.375L90.75,0L0,45.375" stroke-width="2" id="cond1" class="flowchart" style="-webkit-tap-highlight-color: rgba(0, 0, 0, 0);" transform="matrix(1,0,0,1,37.75,290.375)"></path><text x="50.375" y="45.375" text-anchor="start" font="10px &quot;Arial&quot;" stroke="none" fill="#000000" style="-webkit-tap-highlight-color: rgba(0, 0, 0, 0); text-anchor: start; font-style: normal; font-variant: normal; font-weight: normal; font-stretch: normal; font-size: 15px; line-height: normal; font-family: Arial;" id="cond1t" class="flowchartt" font-size="15px" transform="matrix(1,0,0,1,37.75,290.375)" stroke-width="1"><tspan style="-webkit-tap-highlight-color: rgba(0, 0, 0, 0);" dy="5.5">检测到人脸？</tspan></text><path fill="#ffffff" stroke="#000000" d="M10,18.5L0,37L177,37L197,0L20,0L10,18.5" stroke-width="2" id="i2" class="flowchart" style="-webkit-tap-highlight-color: rgba(0, 0, 0, 0);" transform="matrix(1,0,0,1,30,478.875)"></path><text x="30" y="18.5" text-anchor="start" font="10px &quot;Arial&quot;" stroke="none" fill="#000000" style="-webkit-tap-highlight-color: rgba(0, 0, 0, 0); text-anchor: start; font-style: normal; font-variant: normal; font-weight: normal; font-stretch: normal; font-size: 15px; line-height: normal; font-family: Arial;" id="i2t" class="flowchartt" font-size="15px" transform="matrix(1,0,0,1,30,478.875)" stroke-width="1"><tspan style="-webkit-tap-highlight-color: rgba(0, 0, 0, 0);" dy="5.5">获取归一化人脸图像</tspan></text><path fill="#ffffff" stroke="#000000" d="M10,18.5L0,37L132,37L152,0L20,0L10,18.5" stroke-width="2" id="i3" class="flowchart" style="-webkit-tap-highlight-color: rgba(0, 0, 0, 0);" transform="matrix(1,0,0,1,52.5,613.625)"></path><text x="30" y="18.5" text-anchor="start" font="10px &quot;Arial&quot;" stroke="none" fill="#000000" style="-webkit-tap-highlight-color: rgba(0, 0, 0, 0); text-anchor: start; font-style: normal; font-variant: normal; font-weight: normal; font-stretch: normal; font-size: 15px; line-height: normal; font-family: Arial;" id="i3t" class="flowchartt" font-size="15px" transform="matrix(1,0,0,1,52.5,613.625)" stroke-width="1"><tspan style="-webkit-tap-highlight-color: rgba(0, 0, 0, 0);" dy="5.5">获取人脸质量</tspan></text><path fill="#ffffff" stroke="#000000" d="M62.25,31.125L0,62.25L124.5,124.5L249,62.25L124.5,0L0,62.25" stroke-width="2" id="cond2" class="flowchart" style="-webkit-tap-highlight-color: rgba(0, 0, 0, 0);" transform="matrix(1,0,0,1,4,704.625)"></path><text x="67.25" y="62.25" text-anchor="start" font="10px &quot;Arial&quot;" stroke="none" fill="#000000" style="-webkit-tap-highlight-color: rgba(0, 0, 0, 0); text-anchor: start; font-style: normal; font-variant: normal; font-weight: normal; font-stretch: normal; font-size: 15px; line-height: normal; font-family: Arial;" id="cond2t" class="flowchartt" font-size="15px" transform="matrix(1,0,0,1,4,704.625)" stroke-width="1"><tspan style="-webkit-tap-highlight-color: rgba(0, 0, 0, 0);" dy="5.5">人脸质量大于阈值？</tspan></text><path fill="#ffffff" stroke="#000000" d="M10,18.5L0,37L131,37L151,0L20,0L10,18.5" stroke-width="2" id="i4" class="flowchart" style="-webkit-tap-highlight-color: rgba(0, 0, 0, 0);" transform="matrix(1,0,0,1,53,926.875)"></path><text x="30" y="18.5" text-anchor="start" font="10px &quot;Arial&quot;" stroke="none" fill="#000000" style="-webkit-tap-highlight-color: rgba(0, 0, 0, 0); text-anchor: start; font-style: normal; font-variant: normal; font-weight: normal; font-stretch: normal; font-size: 15px; line-height: normal; font-family: Arial;" id="i4t" class="flowchartt" font-size="15px" transform="matrix(1,0,0,1,53,926.875)" stroke-width="1"><tspan style="-webkit-tap-highlight-color: rgba(0, 0, 0, 0);" dy="5.5">获取人脸特征</tspan></text><path fill="#ffffff" stroke="#000000" d="M10,18.5L0,37L132,37L152,0L20,0L10,18.5" stroke-width="2" id="i5" class="flowchart" style="-webkit-tap-highlight-color: rgba(0, 0, 0, 0);" transform="matrix(1,0,0,1,52.5,1061.625)"></path><text x="30" y="18.5" text-anchor="start" font="10px &quot;Arial&quot;" stroke="none" fill="#000000" style="-webkit-tap-highlight-color: rgba(0, 0, 0, 0); text-anchor: start; font-style: normal; font-variant: normal; font-weight: normal; font-stretch: normal; font-size: 15px; line-height: normal; font-family: Arial;" id="i5t" class="flowchartt" font-size="15px" transform="matrix(1,0,0,1,52.5,1061.625)" stroke-width="1"><tspan style="-webkit-tap-highlight-color: rgba(0, 0, 0, 0);" dy="5.5">人脸特征比对</tspan></text><rect x="0" y="0" width="46.6875" height="37" r="20" rx="20" ry="20" fill="#ffffff" stroke="#000000" style="-webkit-tap-highlight-color: rgba(0, 0, 0, 0);" stroke-width="2" class="flowchart" id="e" transform="matrix(1,0,0,1,105.1563,1196.375)"></rect><text x="10" y="18.5" text-anchor="start" font="10px &quot;Arial&quot;" stroke="none" fill="#000000" style="-webkit-tap-highlight-color: rgba(0, 0, 0, 0); text-anchor: start; font-style: normal; font-variant: normal; font-weight: normal; font-stretch: normal; font-size: 15px; line-height: normal; font-family: Arial;" id="et" class="flowchartt" font-size="15px" transform="matrix(1,0,0,1,105.1563,1196.375)" stroke-width="1"><tspan style="-webkit-tap-highlight-color: rgba(0, 0, 0, 0);" dy="5.5">End</tspan></text><path fill="none" stroke="#000000" d="M128.5,84.75C128.5,84.75,128.5,163.0536112189293,128.5,179.4943108400912" stroke-width="2" marker-end="url(#raphael-marker-endblock33-obj6)" style="-webkit-tap-highlight-color: rgba(0, 0, 0, 0);"></path><path fill="none" stroke="#000000" d="M128.5,219.5C128.5,219.5,128.5,273.8848637342453,128.5,287.3748592308257" stroke-width="2" marker-end="url(#raphael-marker-endblock33-obj6)" style="-webkit-tap-highlight-color: rgba(0, 0, 0, 0);"></path><path fill="none" stroke="#000000" d="M128.5,381.125C128.5,381.125,128.5,459.4286112189293,128.5,475.8693108400912" stroke-width="2" marker-end="url(#raphael-marker-endblock33-obj6)" style="-webkit-tap-highlight-color: rgba(0, 0, 0, 0);"></path><text x="133.5" y="391.125" text-anchor="start" font="10px &quot;Arial&quot;" stroke="none" fill="#000000" style="-webkit-tap-highlight-color: rgba(0, 0, 0, 0); text-anchor: start; font-style: normal; font-variant: normal; font-weight: normal; font-stretch: normal; font-size: 15px; line-height: normal; font-family: Arial;" font-size="15px" stroke-width="1"><tspan style="-webkit-tap-highlight-color: rgba(0, 0, 0, 0);" dy="5.5">yes</tspan></text><path fill="none" stroke="#000000" d="M219.25,335.75C219.25,335.75,244.25,335.75,244.25,335.75C244.25,335.75,244.25,1171.375,244.25,1171.375C244.25,1171.375,128.5,1171.375,128.5,1171.375C128.5,1171.375,128.5,1186.74844455719,128.5,1193.3842477742583" stroke-width="2" marker-end="url(#raphael-marker-endblock33-obj6)" style="-webkit-tap-highlight-color: rgba(0, 0, 0, 0);"></path><text x="224.25" y="325.75" text-anchor="start" font="10px &quot;Arial&quot;" stroke="none" fill="#000000" style="-webkit-tap-highlight-color: rgba(0, 0, 0, 0); text-anchor: start; font-style: normal; font-variant: normal; font-weight: normal; font-stretch: normal; font-size: 15px; line-height: normal; font-family: Arial;" font-size="15px" stroke-width="1"><tspan style="-webkit-tap-highlight-color: rgba(0, 0, 0, 0);" dy="5.5">no</tspan></text><path fill="none" stroke="#000000" d="M128.5,515.875C128.5,515.875,128.5,594.1786112189293,128.5,610.6193108400912" stroke-width="2" marker-end="url(#raphael-marker-endblock33-obj6)" style="-webkit-tap-highlight-color: rgba(0, 0, 0, 0);"></path><path fill="none" stroke="#000000" d="M128.5,650.625C128.5,650.625,128.5,690.2790999412537,128.5,701.6254390846007" stroke-width="2" marker-end="url(#raphael-marker-endblock33-obj6)" style="-webkit-tap-highlight-color: rgba(0, 0, 0, 0);"></path><path fill="none" stroke="#000000" d="M128.5,829.125C128.5,829.125,128.5,907.4286112189293,128.5,923.8693108400912" stroke-width="2" marker-end="url(#raphael-marker-endblock33-obj6)" style="-webkit-tap-highlight-color: rgba(0, 0, 0, 0);"></path><text x="133.5" y="839.125" text-anchor="start" font="10px &quot;Arial&quot;" stroke="none" fill="#000000" style="-webkit-tap-highlight-color: rgba(0, 0, 0, 0); text-anchor: start; font-style: normal; font-variant: normal; font-weight: normal; font-stretch: normal; font-size: 15px; line-height: normal; font-family: Arial;" font-size="15px" stroke-width="1"><tspan style="-webkit-tap-highlight-color: rgba(0, 0, 0, 0);" dy="5.5">yes</tspan></text><path fill="none" stroke="#000000" d="M253,766.875C253,766.875,278,766.875,278,766.875C278,766.875,278,1171.375,278,1171.375C278,1171.375,128.5,1171.375,128.5,1171.375C128.5,1171.375,128.5,1186.74844455719,128.5,1193.3842477742583" stroke-width="2" marker-end="url(#raphael-marker-endblock33-obj6)" style="-webkit-tap-highlight-color: rgba(0, 0, 0, 0);"></path><text x="258" y="756.875" text-anchor="start" font="10px &quot;Arial&quot;" stroke="none" fill="#000000" style="-webkit-tap-highlight-color: rgba(0, 0, 0, 0); text-anchor: start; font-style: normal; font-variant: normal; font-weight: normal; font-stretch: normal; font-size: 15px; line-height: normal; font-family: Arial;" font-size="15px" stroke-width="1"><tspan style="-webkit-tap-highlight-color: rgba(0, 0, 0, 0);" dy="5.5">no</tspan></text><path fill="none" stroke="#000000" d="M128.5,963.875C128.5,963.875,128.5,1042.1786112189293,128.5,1058.6193108400912" stroke-width="2" marker-end="url(#raphael-marker-endblock33-obj6)" style="-webkit-tap-highlight-color: rgba(0, 0, 0, 0);"></path><path fill="none" stroke="#000000" d="M128.5,1098.625C128.5,1098.625,128.5,1176.9286112189293,128.5,1193.3693108400912" stroke-width="2" marker-end="url(#raphael-marker-endblock33-obj6)" style="-webkit-tap-highlight-color: rgba(0, 0, 0, 0);"></path></svg>